<svg width="520" height="332" viewBox="0 0 520 332" fill="none" xmlns="http://www.w3.org/2000/svg">
<path d="M89.8185 112.686V102.785C89.8185 92.8107 89.8185 72.8238 89.9277 61.8949C90.0368 50.9661 90.2552 49.701 90.6715 48.5161C91.4914 46.1828 99.7018 37.8496 112.598 25.4566C121.103 17.2833 133.074 11.3172 146.897 5.25729C164.655 -2.52772 182.084 2.26498 186.535 4.7696C188.463 5.85424 189.744 8.01923 191.231 10.175C192.873 12.5544 197.88 27.6855 204.962 48.7831C207.473 56.2629 208.439 56.9643 215.594 57.2594C236.211 58.1099 252.631 57.6042 256.964 58.4178C263.358 59.6184 269.606 64.6384 274.804 70.7139C279.609 76.3293 280.03 89.5806 279.127 97.0579C278.548 101.855 268.727 109.782 247.123 124.149C239.626 130.16 236.34 134.671 235.57 136.755C235.202 137.863 234.884 139.072 233.627 141.859M179.443 154.011C181.939 156.644 189.778 164.224 196.086 167.483C198.797 168.883 211.093 168.893 228.814 168.802C238.929 168.75 243.441 167.647 245.874 168.076C250.399 168.875 249.966 176.573 250.233 187.379C250.453 196.279 243.99 204.907 239.603 208.712C236.209 211.656 226.282 214.663 213.961 218.334C195.955 220.803 179.656 220.645 177.424 220.059C176.334 219.746 175.329 219.401 173.155 218.254M235.577 224.324C235.901 223.107 243.427 211.55 249.243 203.368C252.362 198.98 258.84 197.07 266.641 195.935C272.689 195.055 277.463 196.347 279.819 197.41C282.503 198.619 285.909 202.278 290.672 208.364C296.82 216.219 300.181 226.029 303 235.145C304.512 240.036 305.244 245.731 306.063 259.342C306.881 272.953 307.521 294.376 307.963 306.272C308.47 319.894 308.863 324.414 307.064 328.604C306.157 330.718 301.668 330.064 298.622 329.793C295.576 329.521 293.192 328.95 291.652 325.959C290.112 322.967 289.489 317.572 289.256 304.874C289.022 292.177 289.197 272.341 288.685 259.844C287.698 235.719 277.659 225.097 272.827 219.349C270.198 216.22 262.569 216.843 256.431 218.545C253.905 219.246 252.383 221.295 251.148 222.958L251.138 222.971C246.671 228.985 246.8 238.771 245.138 239.694C244.125 239.87 242.769 239.452 240.165 237.878C237.561 236.304 233.751 233.587 229.825 230.787M93.8289 106.145C93.8289 106.173 93.8289 106.201 93.6802 122.729C93.5316 139.258 93.2342 172.287 92.7523 190.784C92.1925 212.268 90.0241 217.307 87.616 221.853C84.5337 227.672 79.7662 232.809 74.3701 237.856C71.2879 240.739 66.9755 243.679 57.8867 248.431C48.7979 253.183 34.9273 259.507 25.6545 263.426C7.20254 271.223 4.505 271.977 3.38305 273.233C-1.7522 278.984 2.93004 292.473 3.46206 293.896C4.65343 297.083 10.2129 298.284 29.7398 301.618C42.246 303.753 50.7493 302.321 60.717 300.643L61.0421 300.588C69.1138 299.229 83.2485 296.357 91.7261 294.634L92.8535 294.405C102.221 292.502 104.194 292.014 105.909 292.873C114.466 297.164 114.586 316.76 117.592 321.985C118.41 323.406 119.997 324.312 121.882 325.234C124.19 326.363 136.411 326.27 154.86 325.47C174.641 324.612 180.742 318.741 183.678 316.256C187.083 313.374 186.83 296.508 188.681 286.975M172.644 75.8198C172.528 75.7327 172.412 75.6456 172.257 75.8696C172.008 76.2306 171.862 76.992 171.807 77.9262M171.807 77.9262C171.757 78.7734 171.783 79.7628 171.877 80.7246C171.931 81.2795 172.614 80.6815 173.004 80.0531C174.497 77.6475 174.29 75.6342 173.944 75.062C173.075 75.8919 172.357 76.8991 171.807 77.9262ZM171.807 77.9262C171.085 79.2741 170.654 80.6563 170.554 81.7169C170.69 81.774 170.994 81.3171 171.307 80.2705M203.398 62.6634C203.367 62.6477 203.335 62.8919 203.313 63.3418M203.313 63.3418C203.272 64.1771 203.264 65.7215 203.348 67.6274C203.385 68.477 203.914 67.9616 204.147 66.9678C204.38 65.974 204.441 64.4998 204.006 63.8092C203.836 63.5392 203.59 63.3958 203.313 63.3418ZM203.313 63.3418C202.882 63.2576 202.376 63.3904 201.965 63.5992C200.901 64.4861 200.281 65.6472 199.875 66.9085C199.686 67.5691 199.534 68.2715 199.377 68.9952M227.689 101.558C227.594 97.352 228.299 86.6273 230.151 83.5104C231.624 81.0317 240.5 81.4631 245.891 81.9657C248.55 83.1899 250.602 84.9886 252.099 86.7286C252.699 87.4701 252.977 87.9246 253.513 88.7195M356.591 73.1742C356.6 77.2068 356.811 86.4308 357.364 88.0247C357.621 88.7657 358.24 89.1939 358.867 89.5354C363.14 91.8622 371.034 90.1618 373.999 88.6596C375.862 86.0739 376.69 83.7326 376.978 82.037C377.092 81.1311 377.138 80.1332 377.186 79.105M382.806 67.7275V94.108M382.806 85.2663C382.806 85.2221 382.806 85.1778 386.684 85.0838C390.561 84.9897 398.317 84.8473 406.307 84.7005M406.404 70.7495V92.4398M463.377 72.0782C462.396 72.0892 458.901 72.5183 456.131 73.8593C454.958 74.4272 454.194 75.6861 453.567 77.3279C453.201 78.2876 453.364 79.6889 453.743 80.8059C455.088 84.7767 459.491 85.4831 465.046 86.7585C466.999 87.2071 468.324 87.1399 469.533 86.9915C470.974 86.8146 471.917 85.7657 472.395 84.7367C472.824 83.5645 473.157 80.0181 473.227 75.2405C473.17 73.3724 472.924 72.6338 471.961 70.4687M482.542 66.7342V92.0521M482.542 81.1043H484.956C487.208 81.1043 491.626 81.1043 496.707 80.3855M498.293 64.2738V95.4241M518.16 63.3517V82.1563M518.16 93.3473V96.8911M189.594 288.669C193.686 288.601 202.937 288.907 204.801 290.171C205.272 290.49 205.434 291.089 205.574 295.629C205.715 300.169 205.738 308.738 205.868 313.413C205.998 318.087 206.233 318.607 206.543 319.015C206.853 319.423 207.23 319.703 207.669 319.896C208.108 320.09 208.598 320.189 213.547 320.305C218.495 320.422 227.887 320.553 233.214 320.548C239.519 320.542 241.017 320.072 241.905 319.614C245.971 317.518 246.955 307.186 247.395 301.707C247.653 298.497 247.363 292.595 247.019 288.211C246.461 281.081 243.799 274.06 241.236 266.524C239.894 261.196 239.524 255.756 239.666 250.201C239.814 247.945 240.114 246.831 240.672 245.359" stroke="white" stroke-width="2" stroke-linecap="round"/>
</svg>
